nColumns=19
nRows=43
DataType=double
version=3
OpenSimVersion=4.1
endheader
time	ground_force_calcn_r_vx	ground_force_calcn_r_vy	ground_force_calcn_r_vz	ground_force_calcn_r_px	ground_force_calcn_r_py	ground_force_calcn_r_pz	ground_force_calcn_r_mx	ground_force_calcn_r_my	ground_force_calcn_r_mz	ground_force_calcn_l_vx	ground_force_calcn_l_vy	ground_force_calcn_l_vz	ground_force_calcn_l_px	ground_force_calcn_l_py	ground_force_calcn_l_pz	ground_force_calcn_l_mx	ground_force_calcn_l_my	ground_force_calcn_l_mz
6.28	10.7742	550.297	-2.1253	-0.282313	0	-0.457032	0.0192507	0.983234	-0.00379735	-0.629425	66.0554	1.16523	-0.246893	0	-0.825603	-0.00878044	0.92147	0.0162549
6.29	10.2399	548.509	-2.19947	-0.282017	0	-0.456907	0.0163371	0.875116	-0.00350913	-0.428783	66.5906	1.56354	-0.246877	0	-0.826094	-0.00597845	0.928462	0.0218002
6.3	9.65752	546	-2.23197	-0.281689	0	-0.456789	0.013531	0.764994	-0.00312719	-0.24916	67.0091	1.92465	-0.246763	0	-0.826505	-0.00346666	0.932323	0.0267784
6.31	9.02216	542.864	-2.22775	-0.281332	0	-0.456676	0.010854	0.653086	-0.00268006	-0.0950875	67.3047	2.23874	-0.246536	0	-0.826836	-0.00131744	0.932506	0.0310177
6.32	8.33418	539.211	-2.19659	-0.280943	0	-0.456569	0.00833913	0.539531	-0.00219789	0.0365452	67.5037	2.50265	-0.246196	0	-0.82709	0.000502755	0.928653	0.0344291
6.33	7.60002	535.165	-2.15185	-0.280527	0	-0.456464	0.00602935	0.424565	-0.00170713	0.154285	67.6539	2.72018	-0.245754	0	-0.827276	0.00209944	0.920602	0.0370149
6.34	6.83229	530.865	-2.10782	-0.28009	0	-0.456358	0.00397085	0.308533	-0.00122504	0.267861	67.8042	2.8989	-0.245226	0	-0.827406	0.00358858	0.908382	0.038837
6.35	6.04935	526.451	-2.07798	-0.279639	0	-0.456248	0.0022053	0.191919	-0.000757533	0.384941	67.9883	3.04695	-0.244628	0	-0.827488	0.00505191	0.892267	0.0399877
6.36	5.27386	522.056	-2.0738	-0.279182	0	-0.456131	0.000762306	0.0754601	-0.000299755	0.508656	68.2131	3.17104	-0.24397	0	-0.827531	0.00650853	0.872823	0.0405752
6.37	4.5301	517.8	-2.10357	-0.278729	0	-0.456005	-0.000348885	-0.0398783	0.000162006	0.63749	68.454	3.27367	-0.243256	0	-0.827535	0.00792379	0.850859	0.0406906
6.38	3.84095	513.783	-2.17124	-0.278283	0	-0.45587	-0.00114381	-0.153001	0.000646579	0.766093	68.6609	3.35158	-0.242481	0	-0.8275	0.00922985	0.827223	0.0403797
6.39	3.22369	510.083	-2.27622	-0.277849	0	-0.455724	-0.00166093	-0.262807	0.00117276	0.886494	68.7749	3.39804	-0.241631	0	-0.827418	0.0103462	0.802663	0.0396581
6.4	2.68654	506.744	-2.41444	-0.277426	0	-0.455572	-0.00195228	-0.368246	0.00175455	0.990262	68.7463	3.40677	-0.240689	0	-0.827284	0.0112049	0.777872	0.0385479
6.41	2.2293	503.785	-2.58043	-0.277011	0	-0.455412	-0.00207261	-0.468377	0.00239906	1.07102	68.549	3.37507	-0.239644	0	-0.827096	0.0117735	0.753544	0.0371014
6.42	1.84515	501.198	-2.76867	-0.276601	0	-0.455249	-0.00207068	-0.56246	0.00310709	1.12657	68.1896	3.30641	-0.238496	0	-0.826855	0.0120665	0.730368	0.0354144
6.43	1.52082	498.95	-2.97389	-0.276193	0	-0.455083	-0.00198122	-0.649997	0.00387418	1.15895	67.7103	3.21184	-0.237265	0	-0.826575	0.0121347	0.708953	0.0336292
6.44	1.2384	496.981	-3.191	-0.275781	0	-0.454918	-0.00182086	-0.730729	0.00469185	1.17355	67.1796	3.10827	-0.235988	0	-0.826279	0.0120484	0.689706	0.0319113
6.45	0.977707	495.209	-3.41578	-0.275365	0	-0.454755	-0.00158857	-0.804611	0.00554992	1.17706	66.6753	3.01517	-0.234712	0	-0.825996	0.0118778	0.672826	0.0304264
6.46	0.716489	493.537	-3.64424	-0.274939	0	-0.454594	-0.00126543	-0.87166	0.00643626	1.17552	66.2658	2.95111	-0.233487	0	-0.825758	0.0116788	0.658349	0.0293192
6.47	0.432056	491.86	-3.87203	-0.274494	0	-0.454439	-0.000818601	-0.931908	0.00733618	1.17327	65.998	2.93056	-0.232356	0	-0.825588	0.0114864	0.646125	0.0286904
6.48	0.104249	490.079	-4.09512	-0.274021	0	-0.454291	-0.000209616	-0.985415	0.00823416	1.17308	65.8909	2.96225	-0.231356	0	-0.825502	0.0113187	0.635762	0.0285819
6.49	-0.279986	488.115	-4.30993	-0.273512	0	-0.45415	0.00059212	-1.03228	0.00911473	1.17651	65.9359	3.04858	-0.230506	0	-0.825502	0.0111831	0.626743	0.0289778
6.5	-0.722937	485.912	-4.51316	-0.27296	0	-0.454014	0.00159581	-1.0726	0.00996236	1.18381	66.1042	3.18546	-0.229817	0	-0.825579	0.0110778	0.618585	0.0298086
6.51	-1.21544	483.447	-4.70218	-0.27236	0	-0.453885	0.00278186	-1.1065	0.0107622	1.19367	66.3572	3.36326	-0.229287	0	-0.825713	0.0109892	0.6109	0.030963
6.52	-1.73874	480.719	-4.87514	-0.271715	0	-0.453763	0.00410172	-1.13402	0.0115005	1.20278	66.654	3.56963	-0.2289	0	-0.825883	0.0108899	0.603481	0.0323192
6.53	-2.26825	477.748	-5.03044	-0.271028	0	-0.453647	0.00548482	-1.15523	0.012164	1.20583	66.9592	3.79255	-0.228628	0	-0.826065	0.0107372	0.596231	0.0337703
6.54	-2.77963	474.565	-5.16615	-0.270303	0	-0.45354	0.0068539	-1.17017	0.0127385	1.19606	67.2495	4.02286	-0.228438	0	-0.826246	0.0104769	0.589075	0.0352384
6.55	-3.25423	471.208	-5.27983	-0.269543	0	-0.453444	0.0081413	-1.17885	0.0132088	1.16663	67.515	4.25591	-0.228296	0	-0.826418	0.010056	0.581958	0.0366845
6.56	-3.67955	467.708	-5.36877	-0.268753	0	-0.453361	0.00929412	-1.18137	0.0135609	1.11182	67.7585	4.49186	-0.228173	0	-0.826581	0.00943276	0.574867	0.0381091
6.57	-4.04589	464.097	-5.43096	-0.267941	0	-0.453293	0.0102706	-1.17812	0.0137866	1.02799	67.993	4.73324	-0.228047	0	-0.826739	0.00858382	0.567747	0.0395229
6.58	-4.34317	460.409	-5.46551	-0.267126	0	-0.453241	0.0110345	-1.16975	0.013886	0.914574	68.2385	4.98263	-0.227903	0	-0.8269	0.00751198	0.560486	0.0409254
6.59	-4.55754	456.686	-5.47272	-0.266327	0	-0.453207	0.0115479	-1.15715	0.0138668	0.774516	68.5152	5.24125	-0.227735	0	-0.827066	0.00625056	0.552937	0.0422984
6.6	-4.66818	452.978	-5.4546	-0.265579	0	-0.453193	0.0117615	-1.14128	0.0137428	0.613967	68.8367	5.50793	-0.22755	0	-0.827239	0.00486085	0.544988	0.0436069
6.61	-4.64849	449.349	-5.41506	-0.264913	0	-0.453199	0.0116162	-1.12289	0.0135318	0.441043	69.2065	5.7782	-0.227361	0	-0.827422	0.00341992	0.536638	0.044805
6.62	-4.47203	445.88	-5.35958	-0.264361	0	-0.453225	0.0110574	-1.10247	0.0132519	0.264433	69.6157	6.04455	-0.227182	0	-0.827605	0.00200555	0.52799	0.045844
6.63	-4.12049	442.656	-5.29477	-0.263943	0	-0.453271	0.0100533	-1.08001	0.0129184	0.0927248	70.0424	6.29758	-0.22703	0	-0.827786	0.000687362	0.519219	0.0466835
6.64	-3.59172	439.756	-5.22903	-0.263664	0	-0.453332	0.0086169	-1.05502	0.012545	-0.0664585	70.4543	6.52708	-0.226909	0	-0.827954	-0.000481593	0.510549	0.0472986
6.65	-2.90758	437.239	-5.17279	-0.263508	0	-0.453406	0.00682725	-1.02667	0.0121462	-0.207259	70.8138	6.72383	-0.226808	0	-0.828098	-0.00146992	0.502225	0.0476867
6.66	-2.11141	435.132	-5.13695	-0.263448	0	-0.453487	0.00482383	-0.994123	0.0117361	-0.326205	71.0813	6.88096	-0.226704	0	-0.828212	-0.00226892	0.494405	0.0478605
6.67	-1.25779	433.443	-5.1305	-0.263445	0	-0.453567	0.00277641	-0.956772	0.011325	-0.42308	71.2198	6.99472	-0.226563	0	-0.828288	-0.00289386	0.487142	0.0478437
6.68	-0.40259	432.17	-5.15848	-0.26346	0	-0.453641	0.000851857	-0.914448	0.010915	-0.501347	71.1981	7.06425	-0.226348	0	-0.828329	-0.00338254	0.480366	0.0476618
6.69	0.402865	431.31	-5.22147	-0.263461	0	-0.453707	-0.000810104	-0.867304	0.0104996	-0.566922	70.9904	7.09093	-0.226022	0	-0.82834	-0.00378574	0.474053	0.0473511
6.7	1.116	430.853	-5.31671	-0.263424	0	-0.453763	-0.00211292	-0.815737	0.0100662	-0.626473	70.5751	7.07784	-0.225549	0	-0.828328	-0.00415619	0.468214	0.0469563
